# xmcd
#
# Track frame offsets:
#   150
#   17497
#   33627
#   48035
#   64040
#   76270
#   90527
#   107577
#   122435
#   135872
#
# Disc length: 2028 seconds
#
# Revision: 2
# Processed by: cddbd v1.5.1PL0 Copyright (c) Steve Scherf et al.
# Submitted via: threefifteen 2.8.0
#
DISCID=6907ea0a
DTITLE=Instrumental Anthology - Winterlude
DYEAR=1900
DGENRE=Xmas
TTITLE0=Vivaldi - Concerto for Violin and Strings Op.8, 'The Four Seasons', No.4 "Winter" in f - Allegro -- Tchaikovsky - The Nutcracker Ballet Suite, Op.71
TTITLE1=Overture
TTITLE2=Walz of the Snowflakes
TTITLE3=Russian Dance
TTITLE4=Dance of the Flutes
TTITLE5=Waltz of the Flowers
TTITLE6=Gieg - Perr Gynt Suite, No.1 'In the Hall of the Mountain King'
TTITLE7=Haydn - Symphony No.104 in D, 'London' - Minuetto: Allegro
TTITLE8=Chopin - Polonaise for Piano, No.6 in A flat, Op.53 'Heroic' - Maestoso
TTITLE9=Mahler - Symphony No.1 in D 'The Titan' part II 'Kräftig bewegr, doch nicht zu schnell'
EXTD=
EXTT0=
EXTT1=
EXTT2=
EXTT3=
EXTT4=
EXTT5=
EXTT6=
EXTT7=
EXTT8=
EXTT9=
PLAYORDER=
